<svg width="24" height="25" viewBox="0 0 24 25" fill="none" xmlns="http://www.w3.org/2000/svg">
<path d="M11.9224 24.5H11.9019C10.3501 24.4975 8.83942 24.2019 7.41133 23.6218C5.9303 23.0202 4.60636 22.1382 3.47635 21.0008C2.34634 19.8634 1.46643 18.525 0.868778 17.0303C0.292149 15.5893 0 14.065 0 12.4998C0 10.9345 0.292149 9.41042 0.868531 7.96922C1.46619 6.47473 2.34362 5.13885 3.4761 3.99868C4.60858 2.85852 5.93575 1.97557 7.42073 1.37399C8.85229 0.794068 10.3667 0.5 11.9215 0.5C13.4762 0.5 14.9909 0.794068 16.4224 1.37423C17.9072 1.97582 19.2343 2.85901 20.3671 3.99893C20.6181 4.25167 20.6181 4.66177 20.3671 4.9145C20.116 5.16723 19.7086 5.16723 19.4575 4.9145C15.3021 0.732067 8.54109 0.731818 4.3857 4.9145C0.230305 9.09718 0.230305 15.9026 4.3857 20.0853C8.52724 24.254 15.2773 24.2652 19.4325 20.1104C19.6846 19.8584 20.0917 19.8597 20.3421 20.1134C20.5924 20.3671 20.5912 20.777 20.3391 21.029C19.2054 22.1626 17.8785 23.0401 16.3955 23.6367C14.9718 24.2094 13.4668 24.5 11.9224 24.5Z" fill="#008EBB"/>
<path d="M22.8042 13.0652H9.44598C9.09076 13.0652 8.80281 12.7754 8.80281 12.4178C8.80281 12.0603 9.09076 11.7704 9.44598 11.7704H22.8042C23.1594 11.7704 23.4474 12.0603 23.4474 12.4178C23.4474 12.7754 23.1594 13.0652 22.8042 13.0652Z" fill="#008EBB"/>
<path d="M20.7448 15.7604C20.5803 15.7604 20.4155 15.6971 20.2901 15.5707C20.039 15.3179 20.039 14.9078 20.2901 14.6551L22.5128 12.4178L20.2901 10.1806C20.039 9.92784 20.039 9.51774 20.2901 9.26501C20.5412 9.01227 20.9486 9.01227 21.1997 9.26501L23.7652 11.8474C23.9166 11.9998 24 12.2022 24 12.4178C24 12.6335 23.9166 12.8359 23.7652 12.9883L21.1997 15.5707C21.0741 15.6971 20.9096 15.7604 20.7451 15.7604H20.7448Z" fill="#008EBB"/>
</svg>
